Simulation
nRows=48
nColumns=15
endheader
time  TH_x TH_y TH_z SC_y  SC_z  SC_x  AC_y  AC_z  AC_x  GH_y  GH_z  GH_yy  EL_x  PS_y
0.0  0.000000  0.000000  0.000000  -36.1380428985505  2.265272292346476  2.699981764127318  55.15249885133683  6.270066005018019  -6.596995008566759  -4.114733103884457  5.072561318469859  21.001002762369527  22.97432123970911  0.000000
0.011899999999999999  0.000000  0.000000  0.000000  -36.37900609568111  2.1938380458608013  2.50602149124533  54.927578308795646  6.43025287093941  -6.680240334750438  -3.751608392108562  4.94710493843361  20.73255535232016  22.852137700789886  0.000000
0.023799999999999998  0.000000  0.000000  0.000000  -36.365890687540464  2.4531986422044048  2.3531674390393853  54.67900790355365  6.488142586228397  -6.571067252920048  -3.021408247682914  4.661732818562599  20.527094973074217  22.645172180633192  0.000000
0.035699999999999996  0.000000  0.000000  0.000000  -36.37947109785106  2.67901410668243  2.225814176920905  54.49357965400527  6.535636286640823  -6.4343972444449085  -2.2397101822842003  4.448488936758248  20.380363580630625  22.507771538409656  0.000000
0.047599999999999996  0.000000  0.000000  0.000000  -36.42569408003746  2.8305107845833932  2.116153907384383  54.39888466378703  6.573685353515001  -6.299725564040411  -1.565720592905356  4.314541267480988  20.277874762046565  22.41999166262564  0.000000
0.0595  0.000000  0.000000  0.000000  -36.481066499046364  2.9173743942760564  2.026683035124808  54.35174894555271  6.597265512256705  -6.190011853642392  -1.0243550099491605  4.249937916717321  20.255335429790556  22.37650534193677  0.000000
0.07139999999999999  0.000000  0.000000  0.000000  -36.524791565122555  2.963118875681593  1.962702844374663  54.32985676182467  6.5949717452038055  -6.1134729411562505  -0.6290432261101452  4.239106736128746  20.31076391121187  22.375530620787753  0.000000
0.0833  0.000000  0.000000  0.000000  -36.55625813248023  2.987334907177029  1.9162750615420239  54.31754132821313  6.567663942503304  -6.059451636949871  -0.3682427158467336  4.278082830837605  20.444315801221492  22.4097436719609  0.000000
0.09519999999999999  0.000000  0.000000  0.000000  -36.57744200835384  2.9989982231455805  1.8803325380170406  54.307002417691  6.519497940769668  -6.024060713733386  -0.23456771209052152  4.365329937533281  20.642055614123368  22.47684488491733  0.000000
0.10709999999999999  0.000000  0.000000  0.000000  -36.592848265392355  3.0041592295889696  1.8510817845390288  54.29350316445087  6.452283740643889  -6.0018935101276885  -0.2160286854696237  4.501772209370876  20.890846712813754  22.566961529650374  0.000000
0.119  0.000000  0.000000  0.000000  -36.604943119678914  3.0065983636591294  1.8258038278223658  54.27609453747184  6.368508694426615  -5.988796441923984  -0.30243754749472873  4.687472761048058  21.17432711458014  22.67221319462989  0.000000
0.1309  0.000000  0.000000  0.000000  -36.61565342736885  3.008747539178635  1.8041629569458202  54.254428530734906  6.2699957707908185  -5.981591275918755  -0.48123853548121565  4.923074241100659  21.478768840179313  22.78600222013075  0.000000
0.14279999999999998  0.000000  0.000000  0.000000  -36.62584304180917  3.0118203306952434  1.7862956599017559  54.23046962491917  6.159584926558767  -5.978090425339229  -0.7403732039394424  5.2086945345557645  21.79082590441334  22.90430720217094  0.000000
0.15469999999999998  0.000000  0.000000  0.000000  -36.635866941359836  3.0164031364376362  1.773305586676662  54.20511713085066  6.0398728497114575  -5.976735275179313  -1.066940866039186  5.544694321125228  22.099565746498566  23.025146294827124  0.000000
0.1666  0.000000  0.000000  0.000000  -36.64599618461842  3.0226799715240187  1.766020223900461  54.181407568720495  5.9142247952555245  -5.976420129621678  -1.44875143133511  5.930916527210331  22.394887997542153  23.14797664762598  0.000000
0.1785  0.000000  0.000000  0.000000  -36.65629228445423  3.0306266434390294  1.7652215239592672  54.16038982461962  5.78571435864299  -5.976062212432939  -1.8736352441084414  6.367277795899011  22.668812619782447  23.273209120525944  0.000000
0.19039999999999999  0.000000  0.000000  0.000000  -36.66703940212341  3.0399952091868325  1.7711653097560265  54.14478609725394  5.657800178662221  -5.974831219085999  -2.3306578613191977  6.853015985457741  22.913828320095245  23.401313849862614  0.000000
0.20229999999999998  0.000000  0.000000  0.000000  -36.67837452424734  3.0505725481944066  1.7837586341517158  54.135528091483565  5.533314007540721  -5.971747387761961  -2.80949117201157  7.387354710791933  23.124187098461093  23.53261359235374  0.000000
0.21419999999999997  0.000000  0.000000  0.000000  -36.690757628284125  3.0617840663923035  1.8025578153803294  54.134461983464305  5.415222245792717  -5.966231999937645  -3.301192910871594  7.968856426457494  23.294422088537512  23.666965881423746  0.000000
0.2261  0.000000  0.000000  0.000000  -36.70454819904591  3.073428544273107  1.8273524532722996  54.14205967855326  5.30525847658587  -5.957733569828788  -3.797696845891897  8.595937949628896  23.420521665105323  23.80361627074653  0.000000
0.238  0.000000  0.000000  0.000000  -36.72059811088209  3.084817883455774  1.8574485430540326  54.15935326098272  5.205442565177406  -5.946220782536645  -4.292148382833751  9.26663052265152  23.4986806882418  23.941508019419356  0.000000
0.24989999999999998  0.000000  0.000000  0.000000  -36.73980395848228  3.095734143830037  1.89346552833744  54.1859814471235  5.116010844547274  -5.9321609304447085  -4.778452112528042  9.978654566625348  23.52633709888899  24.078915924679677  0.000000
0.2618  0.000000  0.000000  0.000000  -36.763255960603054  3.105911435234636  1.9347716207827539  54.22196842214243  5.038049278026268  -5.916178969764984  -5.25119729406256  10.729416356412777  23.501179015345553  24.214522687056814  0.000000
0.2737  0.000000  0.000000  0.000000  -36.79206819628979  3.1152889966309685  1.9829170672634575  54.266665205486994  4.97058021410978  -5.899747185870874  -5.7050242889116705  11.516069609814616  23.42216898491223  24.347045119373714  0.000000
0.28559999999999997  0.000000  0.000000  0.000000  -36.82679397336307  3.1246106953851784  2.0384299563670094  54.31985604484581  4.912938195303135  -5.882484441417279  -6.13509864196437  12.335164383753952  23.288102887577264  24.474460243251546  0.000000
0.2975  0.000000  0.000000  0.000000  -36.86781989556157  3.134489866285751  2.102099813460806  54.380838095382515  4.864561783523798  -5.8645931749321605  -6.536767336883367  13.183364462882803  23.099014197716595  24.595713962705382  0.000000
0.30939999999999995  0.000000  0.000000  0.000000  -36.915277153282  3.1456695422700216  2.1737416069311837  54.44888018154865  4.825712623381264  -5.846092699533627  -6.906204647511835  14.057341473086066  22.85499555986645  24.70981796977264  0.000000
0.3213  0.000000  0.000000  0.000000  -36.96925377369851  3.1586142768181587  2.253670241440837  54.52251706255637  4.796658391717346  -5.827741835353153  -7.240071049642148  14.953966452147014  22.557353988967066  24.816103419612112  0.000000
0.3332  0.000000  0.000000  0.000000  -37.02918792345916  3.1734724968545738  2.3413024589211084  54.600518598754036  4.778354105123106  -5.810323677827295  -7.535914607590399  15.870049987952992  22.207434787476934  24.91406995956946  0.000000
0.34509999999999996  0.000000  0.000000  0.000000  -37.094404378020805  3.189754325932355  2.4362999228946376  54.68159394642106  4.771367058060822  -5.794556250922807  -7.791749039193594  16.80253276798628  21.807497689243256  25.002746982428146  0.000000
0.357  0.000000  0.000000  0.000000  -37.16391170149925  3.2070935491117996  2.5379145525407827  54.76458529056662  4.776277086472968  -5.781325671500762  -8.006157523126795  17.748112015958643  21.35981235819672  25.08178411302738  0.000000
0.36889999999999995  0.000000  0.000000  0.000000  -37.23688242398764  3.2252015287478124  2.645475045187434  54.848108922666576  4.793599721103856  -5.771667798503784  -8.178025880438202  18.70360865648468  20.867334790690844  25.15099532846694  0.000000
0.38079999999999997  0.000000  0.000000  0.000000  -37.31248419375755  3.243742945984545  2.7582679266934407  54.93035723349228  4.8240281726684815  -5.766585954476665  -8.306700273328953  19.66593218426794  20.333142395781532  25.210066855697  0.000000
0.3927  0.000000  0.000000  0.000000  -37.39009118176415  3.262284633852612  2.875795412515464  55.01000957728679  4.868131742116045  -5.767271344978771  -8.39212079864761  20.632375784819967  19.760469609666178  25.25864129182034  0.000000
0.40459999999999996  0.000000  0.000000  0.000000  -37.4693070891445  3.280512613917583  2.997600824783643  55.08564609660361  4.92645145383971  -5.774573610159846  -8.434489658079439  21.600485461394026  19.15276981203416  25.29625523850571  0.000000
0.4165  0.000000  0.000000  0.000000  -37.54987912153783  3.2981773043536537  3.1234194123048584  55.15646521923223  4.999296163580122  -5.789190293022569  -8.43444958700492  22.568188330434342  18.513579759889854  25.322667136046853  0.000000
0.42839999999999995  0.000000  0.000000  0.000000  -37.631674021467035  3.315430270842752  3.2531176869289453  55.22220252474362  5.08667349815816  -5.810939323231369  -8.392724754227789  23.533603811458104  17.846526204375458  25.337525104053565  0.000000
0.44029999999999997  0.000000  0.000000  0.000000  -37.714649233196674  3.3327504953614184  3.3864553462804308  55.28338748209297  5.188429061947556  -5.83871198537736  -8.310259880266562  24.495168041082433  17.1552023446901  25.340526806552358  0.000000
0.4522  0.000000  0.000000  0.000000  -37.798818175612034  3.3507638383220195  3.522969267852006  55.340816735149254  5.3046272193311585  -5.871014926114776  -8.188221953001406  25.451520317569116  16.443306225559837  25.331728509662913  0.000000
0.46409999999999996  0.000000  0.000000  0.000000  -37.88430091228472  3.370085398782913  3.662297598693629  55.39542540978959  5.435176491763818  -5.906214929381361  -8.028043151798515  26.40171579953188  15.714559604311905  25.31123274690402  0.000000
0.476  0.000000  0.000000  0.000000  -37.97128937701078  3.3913432459129855  3.8041239987835582  55.44813327446659  5.580041316969634  -5.9426233084317985  -7.831549240089797  27.344801550096243  14.972694056603817  25.27921896043012  0.000000
0.48789999999999994  0.000000  0.000000  0.000000  -38.06001009126668  3.415189064619836  3.948166602053098  55.499974881759485  5.738775464255813  -5.978578293198375  -7.600821918960764  28.280082989614954  14.22128949261662  25.23576288789074  0.000000
0.49979999999999997  0.000000  0.000000  0.000000  -38.150811207295845  3.4422467151373373  4.09426252538287  55.55195904772877  5.9109588406118085  -6.012408336961582  -7.338305600021676  29.206480014649532  13.46399358319495  25.18085177274828  0.000000
0.5116999999999999  0.000000  0.000000  0.000000  -38.24396303809081  3.4729360440517305  4.242134725011814  55.60505129152952  6.095788682906172  -6.042605075048888  -7.0466615388915566  30.12310369007708  12.704201300771821  25.11446335080344  0.000000
0.5236  0.000000  0.000000  0.000000  -38.33992222217398  3.5076671448332535  4.391666293269946  55.660320370940994  6.29248436916578  -6.067730969157416  -6.72876692828757  31.028342189050242  11.945491777552025  25.03662582039796  0.000000
0.5355  0.000000  0.000000  0.000000  -38.43898972833077  3.546766638450493  4.542461088203112  55.71877346333544  6.499870145302597  -6.08645957142121  -6.387557125089764  31.920810330911856  11.191072901621155  24.947481218413134  0.000000
0.5474  0.000000  0.000000  0.000000  -38.54157911820697  3.5902823666120147  4.694589824395923  55.781306956487086  6.717218990797468  -6.097776282176285  -6.026185993803332  32.79841067829322  10.4444236705854  24.84727645071542  0.000000
0.5592999999999999  0.000000  0.000000  0.000000  -38.64778564064566  3.638223299292523  4.84776643768043  55.84845996823307  6.94343377549621  -6.100924309605206  -5.647720469691286  33.65974224007227  9.70845762025378  24.736465576481123  0.000000
